<?xml version="1.0" encoding="utf-8"?>
<!-- Generator: Adobe Illustrator 24.2.3, SVG Export Plug-In . SVG Version: 6.00 Build 0)  -->
<svg version="1.1" id="Layer_1" xmlns="http://www.w3.org/2000/svg" xmlns:xlink="http://www.w3.org/1999/xlink" x="0px" y="0px"
	 viewBox="0 0 1030.3 218.8" style="enable-background:new 0 0 1030.3 218.8;" xml:space="preserve">
<style type="text/css">
	.st0{fill:none;stroke:#000000;stroke-width:14;stroke-linecap:round;stroke-linejoin:round;}
	.st1{fill:none;stroke:#000000;stroke-width:18;stroke-linecap:round;stroke-linejoin:round;}
</style>
<path d="M0,52.2h46.9c44,0,75.1,27.5,75.1,66.5c0,39-31,66.7-75.1,66.7H0V52.2z M49.5,163.5c28.1,0,47.9-18.6,47.9-44.8
	c0-26.2-19.8-44.6-47.9-44.6H24.2v89.4H49.5z"/>
<path d="M205.2,82.8V103c-21.5,0-35.9,12.8-35.9,31.8v50.6h-23.7V85.1h23.7v19.4C175.8,91.2,188.8,82.8,205.2,82.8z"/>
<path d="M268.7,82.8"/>
<path d="M448.1,135.2c0,30.8-19.4,52.6-46,52.6c-14,0.2-27.1-6.6-34.9-18.2v49.3h-23.7V85.1h23.7v15.9c7.8-11.6,20.9-18.5,34.9-18.2
	C428.7,82.8,448.1,104.5,448.1,135.2z M424.7,135.2c0-18.8-12-32.2-28.9-32.2c-16.7,0-28.3,13.4-28.3,32.2
	c0,18.8,11.6,32.4,28.3,32.4C412.6,167.6,424.7,154,424.7,135.2z"/>
<path d="M462.5,166l14-17.3c12.2,11.1,26.4,18,43.8,18c16.5,0,25-8.1,25-17.7c0-11.1-9.5-14.7-30.8-19.8
	C486.9,123,467.7,115,467.7,90c0-23.3,19.8-40.4,47.9-40.4c21.1,0,37.1,7.2,50.4,18.6l-13.2,17.8c-11.6-10.1-25-15.7-38.2-15.7
	c-13.4,0-22.5,8.1-22.5,17.5c0,10.9,9.9,14.7,31,19.6c27.7,6.2,46.4,15.1,46.4,39.4c0,23.9-18.2,40.7-50.1,40.7
	C496.6,187.6,477.2,179.8,462.5,166z"/>
<path d="M696.1,135.2c0,30.8-19.4,52.6-46,52.6c-14,0.2-27.1-6.6-34.9-18.2v49.3h-23.7V85.1h23.7v15.9c7.8-11.6,20.9-18.5,34.9-18.2
	C676.7,82.8,696.1,104.5,696.1,135.2z M672.6,135.2c0-18.8-12-32.2-28.9-32.2c-16.7,0-28.3,13.4-28.3,32.2
	c0,18.8,11.6,32.4,28.3,32.4C660.6,167.6,672.6,154,672.6,135.2z"/>
<path d="M804.1,125.1v60.3H781v-12c-7.4,9.3-20,14.4-31.6,14.4c-21.3,0-37.4-12.6-37.4-32c0-19.8,18.4-33.4,40.9-33.4
	c9.6,0.1,19.2,2,28.1,5.4v-2.7c0-11.6-6.4-22.9-24.6-22.9c-9.5,0-18.6,3.3-27.2,7.6l-8.1-16.5c14.2-7,27.4-10.5,40-10.5
	C787.6,82.8,804.1,99.7,804.1,125.1z M781,154v-11.3c-7.9-2.6-16.3-3.9-24.6-3.9c-11.8,0-21.3,6.6-21.3,16.1s8.3,15.5,19.6,15.5
	C766.1,170.5,778.3,164.7,781,154z"/>
<path d="M824.5,135.2c0-28.5,24.6-52.4,53.9-52.4c14.4,0,28.1,5.9,38,16.3l-15.9,14c-5.7-6.3-13.8-9.9-22.3-10.1
	c-16.5,0-30.3,14.7-30.3,32.2c0,17.7,13.8,32.4,30.3,32.4c8.8-0.1,17.1-3.9,22.9-10.5l15.9,13.8c-10.1,10.8-24.2,17-39,16.9
	C849.1,187.8,824.5,163.7,824.5,135.2z"/>
<path d="M1008.4,156.7l14.9,15.5c-8.7,9.3-26.2,15.5-40.7,15.5c-28.7,0-52.4-21.9-52.4-52.8c0-30.1,22.5-52.2,51-52.2
	c31,0,49.1,23.5,49.1,60.5h-75.7c2.9,13.8,13.4,23.5,27.7,23.5C991.7,166.8,1002.8,162.6,1008.4,156.7z M954.9,125.3h52.8
	c-2.7-12.6-11.3-21.5-25.4-21.5C969,103.8,958.4,112.1,954.9,125.3z"/>
<path class="st0" d="M304.2,91.7l-35.8,35.8 M268.4,127.5l-35.8-35.8 M268.4,127.5V25.9"/>
<path class="st1" d="M310.4,143.9c0.1,23.1-18.6,41.9-41.7,42"/>
<path class="st1" d="M307.2,127.9c8.8,21.3-0.5,45.5-20.8,54"/>
<path class="st1" d="M268.7,185.9c-23.1-0.1-41.8-18.9-41.7-42"/>
<path class="st1" d="M230.3,128.1c-8.8,21.3,0.5,45.5,20.8,54"/>
</svg>
