<svg id="Layer_1" data-name="Layer 1" xmlns="http://www.w3.org/2000/svg" viewBox="0 0 124.34 31.82">
  <defs>
    <style>
      .cls-1 {
        fill: #fff;
      }

      .cls-2 {
        fill: none;
        stroke: #fff;
        stroke-miterlimit: 10;
        stroke-width: 3.5px;
      }
    </style>
  </defs>
  <title>pupilpay-white-white</title>
  <g>
    <path class="cls-1" d="M0,8.42H8.07C12,8.42,15,11,15,14.57s-3,6.15-6.94,6.15H3.37V27H0Zm7.69,9.2c2.3,0,3.89-1.16,3.89-3.05S10,11.52,7.69,11.52H3.37v6.1Z" transform="translate(0 0)"/>
    <path class="cls-1" d="M30.29,13V27H27V25.1a5.22,5.22,0,0,1-4.32,2.18,5.07,5.07,0,0,1-5.18-5.4V13h3.18v8.24a3,3,0,0,0,2.94,3.24A3.31,3.31,0,0,0,27,21.83V13Z" transform="translate(0 0)"/>
    <path class="cls-1" d="M48.54,20c0,4.29-2.7,7.31-6.4,7.31a5.71,5.71,0,0,1-4.85-2.53V31.6H34V13h3.3v2.22a5.7,5.7,0,0,1,4.85-2.54C45.84,12.68,48.54,15.7,48.54,20Zm-3.26,0c0-2.62-1.68-4.48-4-4.48S37.31,17.35,37.31,20s1.62,4.51,3.94,4.51S45.28,22.59,45.28,20Z" transform="translate(0 0)"/>
    <path class="cls-1" d="M51.3,9a1.88,1.88,0,0,1,3.75,0A1.88,1.88,0,1,1,51.3,9Zm.22,4h3.29V27H51.52Z" transform="translate(0 0)"/>
    <path class="cls-1" d="M58.45,8.09h3.3V27h-3.3Z" transform="translate(0 0)"/>
    <path class="cls-1" d="M65.5,8.42h8.07c4,0,6.94,2.53,6.94,6.15s-3,6.15-6.94,6.15h-4.7V27H65.5Zm7.69,9.2c2.3,0,3.89-1.16,3.89-3.05s-1.59-3.05-3.89-3.05H68.87v6.1Z" transform="translate(0 0)"/>
    <path class="cls-1" d="M95.12,18.56V27H91.9V25.29a5.73,5.73,0,0,1-4.4,2c-3,0-5.21-1.75-5.21-4.45s2.57-4.64,5.7-4.64a11.25,11.25,0,0,1,3.91.75v-.38c0-1.62-.89-3.18-3.42-3.18a8.54,8.54,0,0,0-3.78,1l-1.14-2.29a12.61,12.61,0,0,1,5.56-1.46C92.82,12.68,95.12,15,95.12,18.56Zm-3.22,4V21a10.57,10.57,0,0,0-3.42-.54c-1.65,0-3,.92-3,2.24s1.16,2.16,2.72,2.16S91.53,24.07,91.9,22.59Z" transform="translate(0 0)"/>
    <path class="cls-1" d="M98.47,31.09l.7-2.38a3.93,3.93,0,0,0,1.78.52,1.88,1.88,0,0,0,1.78-.92l.6-1.24L97.42,13h3.48L105,23.42,108.81,13h3.4L106.3,27.93c-1.06,2.65-2.68,3.86-4.78,3.89A6.66,6.66,0,0,1,98.47,31.09Z" transform="translate(0 0)"/>
  </g>
  <polyline class="cls-2" points="84.14 8.42 84.14 1.75 122.59 1.75 122.59 23.72 114.24 23.72"/>
</svg>
